<?xml version="1.0" encoding="UTF-8" standalone="no"?>
<!-- Created with Inkscape (http://www.inkscape.org/) -->

<svg
   xmlns:dc="http://purl.org/dc/elements/1.1/"
   xmlns:cc="http://creativecommons.org/ns#"
   xmlns:rdf="http://www.w3.org/1999/02/22-rdf-syntax-ns#"
   xmlns:svg="http://www.w3.org/2000/svg"
   xmlns="http://www.w3.org/2000/svg"
   xmlns:sodipodi="http://sodipodi.sourceforge.net/DTD/sodipodi-0.dtd"
   xmlns:inkscape="http://www.inkscape.org/namespaces/inkscape"
   width="800"
   height="600"
   viewBox="0 0 211.66666 158.75"
   version="1.1"
   id="svg8"
   inkscape:version="0.92.4 (5da689c313, 2019-01-14)"
   sodipodi:docname="dessin.svg">
  <defs
     id="defs2" />
  <sodipodi:namedview
     id="base"
     pagecolor="#ffffff"
     bordercolor="#666666"
     borderopacity="1.0"
     inkscape:pageopacity="0.0"
     inkscape:pageshadow="2"
     inkscape:zoom="0.35"
     inkscape:cx="-118.57143"
     inkscape:cy="560"
     inkscape:document-units="mm"
     inkscape:current-layer="layer1"
     showgrid="false"
     units="px"
     inkscape:window-width="1920"
     inkscape:window-height="974"
     inkscape:window-x="-11"
     inkscape:window-y="-11"
     inkscape:window-maximized="1" />
  <metadata
     id="metadata5">
    <rdf:RDF>
      <cc:Work
         rdf:about="">
        <dc:format>image/svg+xml</dc:format>
        <dc:type
           rdf:resource="http://purl.org/dc/dcmitype/StillImage" />
        <dc:title></dc:title>
      </cc:Work>
    </rdf:RDF>
  </metadata>
  <g
     inkscape:label="Calque 1"
     inkscape:groupmode="layer"
     id="layer1"
     transform="translate(0,-138.24998)">
    <path
       id="path3713"
       transform="matrix(0.26458333,0,0,0.26458333,0,138.24998)"
       style="opacity:0.11000001;stroke-width:0.99999994;fill-opacity:1;fill:#ff0000"
       d="M 44.619141,-208.88672 -42.480469,-95.068359 -185.61719,-102.29297 -104.28516,15.714844 -155.38867,149.61523 -18.023438,108.72852 93.53125,198.70898 96.193359,91.667969 C 95.162173,89.053951 94.464786,86.225378 93.615234,83.867188 93.145188,83.655362 92.680669,83.433155 92.230469,83.183594 85.408255,79.401836 80.048567,73.681943 76.560547,66.746094 75.585886,64.633376 74.510126,62.564764 73.636719,60.408203 73.103677,59.092058 73.204448,57.481515 72.349609,56.347656 70.746031,54.220652 68.33896,52.830133 66.482422,50.919922 65.798225,50.215985 65.473123,49.205418 64.755859,48.535156 49.940218,34.690671 68.907131,54.445912 54.773438,39.349609 53.77283,37.839802 52.875855,36.255966 51.771484,34.820312 50.253312,32.84672 48.238501,31.252776 46.919922,29.140625 46.614536,28.651441 47.612696,27.778184 47.15625,27.425781 45.139732,25.86888 42.509429,25.31498 40.306641,24.035156 35.192968,21.064107 34.543796,20.193781 30.623047,16.691406 25.2515,12.011104 19.408164,7.500648 15.453125,1.4628906 15.315274,1.2523709 16.333343,1.4663935 16.181641,1.265625 15.985374,1.0059715 12.23017,-2.4171267 11.416016,-3.1621094 7.0172473,-5.4063171 3.0699326,-7.6288655 -0.8359375,-10.677734 -2.5485914,-12.014629 -4.0177372,-13.643414 -5.7148438,-15 c -6.6998302,-5.355439 -13.9533642,-9.997062 -20.5742182,-15.455078 -16.368401,-13.493509 -11.052776,-28.037434 2.496093,-27.757813 4.51629,0.09321 9.947091,1.833306 15.7949221,5.808594 v 0.002 c 9.103577,6.188485 17.4327157,13.339155 25.9765629,20.222656 0.286904,0.23093 0.714892,0.217403 1.021484,0.421876 3.974691,2.648767 3.811268,4.44537 3.869141,2.419921 4.182572,2.740196 9.021528,5.464086 12.376953,9.322266 1.93775,2.228107 3.235377,4.945443 5.013672,7.302734 1.798975,2.384731 6.894734,5.9204133 9.117187,7.8515629 1.295558,1.156233 2.505596,2.4162271 3.886719,3.46875 1.826105,1.39165977499 4.416735,1.5678669 6.1875,3.0292969 7.627786,6.2952943 13.31462,13.5793462 18.90039,21.5742192 4.00568,2.271646 6.188472,5.475328 9.5625,8.8125 1.130586,1.118247 2.65833,1.851174 3.59961,3.132812 5.386478,7.334384 6.897009,10.797677 9.964848,17.416016 L 217.14258,-22.857422 81.980469,-70.521484 Z M 94.074219,84.068359 c 0.412061,0.404278 0.825544,0.807996 1.330078,1.076172 0.219083,0.116463 0.564482,0.262006 0.941406,0.40625 l 0.01367,-0.492187 C 95.60607,84.71338 94.836113,84.398729 94.074219,84.068359 Z" />
    <path
       sodipodi:type="star"
       id="path3715"
       sodipodi:sides="5"
       sodipodi:cx="142.875"
       sodipodi:cy="143.54166"
       sodipodi:r1="63.450481"
       sodipodi:r2="31.725243"
       sodipodi:arg1="0.26520712"
       sodipodi:arg2="0.89352565"
       inkscape:flatsided="false"
       inkscape:rounded="0"
       inkscape:randomized="0"
       d="m 204.10714,160.17261 -41.35093,8.09208 -16.77641,38.65144 -20.47417,-36.82648 -41.943901,-4.01137 28.697201,-30.8521 -9.14634,-41.130595 38.21001,17.758835 36.29115,-21.408743 -5.08211,41.827663 z"
       inkscape:transform-center-x="-0.95943326"
       inkscape:transform-center-y="5.1392468"
       style="stroke-width:0.26458332;fill:#ffff00" />
    <path
       sodipodi:type="star"
       id="path3717"
       sodipodi:sides="5"
       sodipodi:cx="59.720242"
       sodipodi:cy="208.55354"
       sodipodi:r1="47.069798"
       sodipodi:r2="23.534899"
       sodipodi:arg1="0.52113814"
       sodipodi:arg2="1.1494567"
       inkscape:flatsided="false"
       inkscape:rounded="0"
       inkscape:randomized="0"
       d="m 100.54167,231.98807 -31.196048,-1.95795 -19.298421,24.58857 -7.777995,-30.27424 -29.34866,-10.7556 26.388982,-16.75257 1.159952,-31.2359 24.087283,19.92059 30.065549,-8.54925 -11.502222,29.06417 z"
       inkscape:transform-center-x="2.9891349"
       inkscape:transform-center-y="1.5559941"
       style="stroke-width:0.26458332;fill:#0000ff" />
    <path
       sodipodi:type="star"
       id="path3719"
       sodipodi:sides="5"
       sodipodi:cx="145.14285"
       sodipodi:cy="241.81544"
       sodipodi:r1="60.177799"
       sodipodi:r2="30.088898"
       sodipodi:arg1="1.1015308"
       sodipodi:arg2="1.7298493"
       inkscape:flatsided="false"
       inkscape:rounded="0"
       inkscape:randomized="0"
       d="m 172.35714,295.48807 -31.97986,-23.96352 -37.87045,12.75897 12.90834,-37.81979 -23.837112,-32.07419 39.957652,0.5896 23.1383,-32.58191 11.78685,38.18418 38.13736,11.93746 -32.67297,23.00953 z"
       inkscape:transform-center-x="-2.9452868"
       inkscape:transform-center-y="-2.8728001"
       style="stroke-width:0.26458332;fill:#ff0000" />
    <path
       sodipodi:type="star"
       id="path3721"
       sodipodi:sides="5"
       sodipodi:cx="152.70239"
       sodipodi:cy="257.69046"
       sodipodi:r1="19.344072"
       sodipodi:r2="9.6720362"
       sodipodi:arg1="-0.11200263"
       sodipodi:arg2="0.5163159"
       inkscape:flatsided="false"
       inkscape:rounded="0"
       inkscape:randomized="0"
       d="m 171.92526,255.5284 -10.81164,6.93695 -0.41479,12.83903 -9.93841,-8.13885 -12.33883,3.57299 4.66937,-11.96703 -7.21102,-10.6308 12.82424,0.74281 7.88216,-10.14319 3.25645,12.42612 z"
       inkscape:transform-center-x="-1.2002051"
       inkscape:transform-center-y="-0.66811481"
       style="stroke-width:0.26458332" />
    <path
       sodipodi:type="star"
       style="opacity:0.11000001;fill:#0000ff;stroke-width:0.26458332"
       id="path4543"
       sodipodi:sides="5"
       sodipodi:cx="148.16666"
       sodipodi:cy="154.88094"
       sodipodi:r1="20.424707"
       sodipodi:r2="10.212354"
       sodipodi:arg1="-2.2513176"
       sodipodi:arg2="-1.622999"
       inkscape:flatsided="false"
       inkscape:rounded="0"
       inkscape:randomized="0"
       d="m 135.31547,139.00594 12.31832,5.67655 11.65965,-6.92941 -1.59215,13.46957 10.19329,8.94769 -13.30233,2.6481 -5.35985,12.45938 -6.62914,-11.83296 -13.50586,-1.24736 9.2053,-9.96127 z"
       inkscape:transform-center-x="-0.32933009"
       inkscape:transform-center-y="1.6345157" />
    <text
       xml:space="preserve"
       style="font-style:normal;font-weight:normal;font-size:10.58333302px;line-height:1.25;font-family:sans-serif;letter-spacing:0px;word-spacing:0px;fill:#000000;fill-opacity:1;stroke:none;stroke-width:0.26458332"
       x="25.451159"
       y="162.5038"
       id="text4547"><tspan
         sodipodi:role="line"
         id="tspan4545"
         x="25.451159"
         y="162.5038"
         style="stroke-width:0.26458332;letter-spacing:0px">BONNE ET HEUREUSE ANNEE </tspan><tspan
         sodipodi:role="line"
         x="25.451159"
         y="175.73297"
         style="stroke-width:0.26458332;letter-spacing:0px"
         id="tspan4549" /><tspan
         sodipodi:role="line"
         x="25.451159"
         y="188.96213"
         style="stroke-width:0.26458332;letter-spacing:0px"
         id="tspan4551">                   2022</tspan></text>
  </g>
</svg>
